<svg width="16" height="8" viewBox="0 0 16 8" fill="none" xmlns="http://www.w3.org/2000/svg">
<path d="M0.292432 0.355542C0.619931 0.103665 1.08925 0.164169 1.34223 0.490308L1.34478 0.493508C1.34816 0.497728 1.35472 0.505827 1.36448 0.517492C1.38399 0.540829 1.41624 0.578383 1.46135 0.627662C1.55162 0.726284 1.69298 0.871427 1.88633 1.04334C2.27335 1.38744 2.86585 1.83628 3.67161 2.23505C4.72929 2.75849 6.16282 3.20005 7.99966 3.20005C9.83651 3.20005 11.27 2.75849 12.3277 2.23505C13.1335 1.83628 13.726 1.38744 14.113 1.04334C14.3063 0.871427 14.4477 0.726284 14.538 0.627662C14.5831 0.578383 14.6153 0.540829 14.6349 0.517492C14.6446 0.505827 14.6512 0.497728 14.6545 0.493508L14.6568 0.490701C14.9098 0.164543 15.3794 0.10366 15.7069 0.355542C16.0352 0.608065 16.0967 1.07894 15.8442 1.40728L15.8429 1.40893L15.8413 1.41099L15.8372 1.41628L15.8251 1.43152C15.8153 1.4437 15.8021 1.45989 15.7855 1.47975C15.7523 1.51946 15.7053 1.57391 15.6444 1.64045C15.5227 1.77347 15.3449 1.95522 15.1097 2.16433C14.758 2.47701 14.2764 2.85227 13.6607 3.21717L14.8819 5.609C15.0703 5.97791 14.9239 6.42967 14.555 6.61802C14.1861 6.80638 13.7343 6.66001 13.546 6.2911L12.317 3.8841C11.3369 4.28423 10.1493 4.59471 8.74966 4.67796V6.95005C8.74966 7.36426 8.41388 7.70005 7.99966 7.70005C7.58545 7.70005 7.24966 7.36426 7.24966 6.95005V4.67796C5.85001 4.59471 4.66248 4.28423 3.68229 3.8841L2.45335 6.2911C2.265 6.66001 1.81324 6.80638 1.44433 6.61802C1.07542 6.42967 0.929051 5.97791 1.11741 5.609L2.33861 3.21717C1.72289 2.85227 1.24133 2.47701 0.889647 2.16433C0.654451 1.95522 0.476642 1.77347 0.354889 1.64045C0.293984 1.57391 0.247008 1.51946 0.213799 1.47975C0.197191 1.45989 0.184015 1.4437 0.174251 1.43152L0.162157 1.41628L0.158021 1.41099L0.15643 1.40893L0.155753 1.40806C-0.0967688 1.07972 -0.0359056 0.608064 0.292432 0.355542Z" fill="#3F434A"/>
</svg>
