<svg width="25" height="16" viewBox="0 0 25 16" fill="none" xmlns="http://www.w3.org/2000/svg">
<path fill-rule="evenodd" clip-rule="evenodd" d="M11.2422 10.805C13.3061 9.43099 14.2269 6.86767 13.5092 4.49441C12.7914 2.12114 10.6044 0.497718 8.125 0.497718C5.64558 0.497718 3.45857 2.12114 2.74084 4.49441C2.0231 6.86767 2.94393 9.43099 5.00781 10.805C3.18952 11.4752 1.63666 12.7153 0.580938 14.3403C0.429932 14.5647 0.411484 14.8531 0.53266 15.095C0.653836 15.3368 0.895857 15.4947 1.16603 15.5081C1.43621 15.5215 1.69266 15.3884 1.83719 15.1597C3.22076 13.0317 5.58677 11.7479 8.125 11.7479C10.6632 11.7479 13.0292 13.0317 14.4128 15.1597C14.6417 15.4999 15.1014 15.5932 15.4448 15.3692C15.7882 15.1452 15.8881 14.6869 15.6691 14.3403C14.6133 12.7153 13.0605 11.4752 11.2422 10.805ZM4 6.125C4 3.84683 5.84683 2 8.125 2C10.4032 2 12.25 3.84683 12.25 6.125C12.25 8.40317 10.4032 10.25 8.125 10.25C5.8479 10.2474 4.00258 8.4021 4 6.125ZM23.7006 15.3781C23.3537 15.6043 22.8891 15.5066 22.6628 15.1597C21.2808 13.0303 18.9136 11.7466 16.375 11.75C15.9608 11.75 15.625 11.4142 15.625 11C15.625 10.5858 15.9608 10.25 16.375 10.25C18.0363 10.2484 19.5346 9.25041 20.1761 7.71798C20.8177 6.18554 20.4773 4.4178 19.3126 3.23312C18.148 2.04844 16.3863 1.67805 14.8431 2.29344C14.5927 2.40171 14.3031 2.36541 14.0872 2.19864C13.8712 2.03188 13.7628 1.76096 13.8042 1.49125C13.8456 1.22154 14.0302 0.995581 14.2863 0.90125C16.9609 -0.165433 20.0092 0.960007 21.349 3.50883C22.6888 6.05765 21.8874 9.2067 19.4922 10.805C21.3105 11.4752 22.8633 12.7153 23.9191 14.3403C24.1453 14.6872 24.0475 15.1518 23.7006 15.3781Z" fill="#4A789C"/>
</svg>
