<svg width="18" height="18" viewBox="0 0 18 18" fill="none" xmlns="http://www.w3.org/2000/svg">
<path fill-rule="evenodd" clip-rule="evenodd" d="M16.5 0H1.5C0.671573 0 0 0.671573 0 1.5V16.5C0 17.3284 0.671573 18 1.5 18H16.5C17.3284 18 18 17.3284 18 16.5V1.5C18 0.671573 17.3284 0 16.5 0ZM16.5 1.5V11.25H13.8094C13.4117 11.249 13.0301 11.4073 12.75 11.6897L10.9397 13.5H7.06031L5.25 11.6897C4.96966 11.4071 4.58773 11.2487 4.18969 11.25H1.5V1.5H16.5ZM16.5 16.5H1.5V12.75H4.18969L6 14.5603C6.28034 14.8429 6.66227 15.0013 7.06031 15H10.9397C11.3377 15.0013 11.7197 14.8429 12 14.5603L13.8103 12.75H16.5V16.5Z" fill="#0D141C"/>
</svg>
