<svg width="19" height="20" viewBox="0 0 19 20" fill="none" xmlns="http://www.w3.org/2000/svg">
<path fill-rule="evenodd" clip-rule="evenodd" d="M18.5438 14.4944C18.0234 13.5981 17.25 11.0622 17.25 7.75C17.25 3.60786 13.8921 0.25 9.75 0.25C5.60786 0.25 2.25 3.60786 2.25 7.75C2.25 11.0631 1.47563 13.5981 0.955312 14.4944C0.684866 14.9581 0.682899 15.5311 0.950155 15.9967C1.21741 16.4623 1.71313 16.7496 2.25 16.75H6.07594C6.43267 18.4956 7.96835 19.7492 9.75 19.7492C11.5316 19.7492 13.0673 18.4956 13.4241 16.75H17.25C17.7867 16.7493 18.2821 16.4619 18.5491 15.9963C18.8162 15.5308 18.8141 14.958 18.5438 14.4944ZM9.75 18.25C8.79674 18.2497 7.94713 17.6487 7.62938 16.75H11.8706C11.5529 17.6487 10.7033 18.2497 9.75 18.25ZM2.25 15.25C2.97188 14.0088 3.75 11.1325 3.75 7.75C3.75 4.43629 6.43629 1.75 9.75 1.75C13.0637 1.75 15.75 4.43629 15.75 7.75C15.75 11.1297 16.5263 14.0059 17.25 15.25H2.25Z" fill="#4A789C"/>
</svg>
