<svg width="20" height="20" viewBox="0 0 20 20" fill="none" xmlns="http://www.w3.org/2000/svg">
<path fill-rule="evenodd" clip-rule="evenodd" d="M19.8988 17.875C18.4709 15.4066 16.2706 13.6366 13.7028 12.7975C16.3135 11.2433 17.5641 8.13638 16.7582 5.2069C15.9522 2.27741 13.2883 0.247449 10.25 0.247449C7.21167 0.247449 4.54779 2.27741 3.74182 5.2069C2.93585 8.13638 4.18645 11.2433 6.79719 12.7975C4.22938 13.6356 2.02906 15.4056 0.60125 17.875C0.458704 18.1074 0.453527 18.3989 0.587731 18.6363C0.721935 18.8736 0.974375 19.0194 1.24702 19.0171C1.51967 19.0147 1.76958 18.8646 1.89969 18.625C3.66594 15.5725 6.78781 13.75 10.25 13.75C13.7122 13.75 16.8341 15.5725 18.6003 18.625C18.7304 18.8646 18.9803 19.0147 19.253 19.0171C19.5256 19.0194 19.7781 18.8736 19.9123 18.6363C20.0465 18.3989 20.0413 18.1074 19.8988 17.875ZM5 7C5 4.1005 7.3505 1.75 10.25 1.75C13.1495 1.75 15.5 4.1005 15.5 7C15.5 9.8995 13.1495 12.25 10.25 12.25C7.35179 12.2469 5.0031 9.89821 5 7Z" fill="#4A789C"/>
</svg>
