<svg width="48" height="48" viewBox="0 0 48 48" fill="none" xmlns="http://www.w3.org/2000/svg">
<circle cx="24" cy="24" r="24" fill="#171717"/>
<path d="M15 17H22M22 17C22 18.1046 22.8954 19 24 19C25.1046 19 26 18.1046 26 17M22 17C22 15.8954 22.8954 15 24 15C25.1046 15 26 15.8954 26 17M15 24H24M31 24H33M31 24C31 25.1046 30.1046 26 29 26C27.8954 26 27 25.1046 27 24C27 22.8954 27.8954 22 29 22C30.1046 22 31 22.8954 31 24ZM26 17H33M24 31H33M15 31H17M17 31C17 32.1046 17.8954 33 19 33C20.1046 33 21 32.1046 21 31C21 29.8954 20.1046 29 19 29C17.8954 29 17 29.8954 17 31Z" stroke="white" stroke-width="1.2" stroke-linecap="round"/>
</svg>
