<svg width="82" height="40" viewBox="0 0 82 40" fill="none" xmlns="http://www.w3.org/2000/svg">
<path d="M68.095 30.54C61.788 30.54 56.975 25.643 56.975 19.668C56.975 13.734 61.83 8.838 68.095 8.838C74.444 8.838 79.257 13.776 79.257 19.668C79.257 25.643 74.402 30.539 68.095 30.539V30.54ZM68.095 25.02C71.125 25.02 73.365 22.614 73.365 19.71C73.365 16.805 71.125 14.398 68.095 14.398C65.066 14.398 62.867 16.805 62.867 19.709C62.867 22.614 65.066 25.02 68.095 25.02ZM43.08 40C38.267 40 34.574 37.884 32.707 34.066L37.603 31.411C38.516 33.195 40.217 34.606 42.997 34.606C46.483 34.606 48.847 32.158 48.847 28.133V27.759C47.727 29.17 45.736 30.249 42.831 30.249C37.063 30.249 32.458 25.768 32.458 19.668C32.458 13.734 37.271 8.88 43.578 8.88C50.009 8.88 54.74 13.485 54.74 19.668V27.967C54.74 35.27 49.76 40 43.08 40ZM43.495 24.689C46.441 24.689 48.765 22.489 48.765 19.544C48.765 16.597 46.441 14.44 43.495 14.44C40.59 14.44 38.267 16.598 38.267 19.544C38.267 22.49 40.59 24.689 43.495 24.689ZM20.074 30.54C13.767 30.54 8.954 25.643 8.954 19.668C8.954 13.734 13.808 8.838 20.074 8.838C26.422 8.838 31.236 13.776 31.236 19.668C31.236 25.643 26.381 30.539 20.074 30.539V30.54ZM20.074 25.02C23.103 25.02 25.344 22.614 25.344 19.71C25.344 16.805 23.103 14.398 20.074 14.398C17.044 14.398 14.846 16.805 14.846 19.709C14.846 22.614 17.045 25.02 20.074 25.02ZM0 0H5.892V30H0V0ZM82 6.5C82 7.16304 81.7366 7.79893 81.2678 8.26777C80.7989 8.73661 80.163 9 79.5 9C78.837 9 78.2011 8.73661 77.7322 8.26777C77.2634 7.79893 77 7.16304 77 6.5C77 5.83696 77.2634 5.20107 77.7322 4.73223C78.2011 4.26339 78.837 4 79.5 4C80.163 4 80.7989 4.26339 81.2678 4.73223C81.7366 5.20107 82 5.83696 82 6.5Z" fill="#FFC268"/>
</svg>
